<?xml version="1.0" encoding="UTF-8"?>
<svg version="1.1" xmlns="http://www.w3.org/2000/svg" width="500" height="500">
<path d="M0 0 C0.73138184 -0.0066568 1.46276367 -0.0133136 2.21630859 -0.02017212 C3.75925204 -0.03024425 5.30223856 -0.03499083 6.84521484 -0.03466797 C9.15409485 -0.03899983 11.46099369 -0.07525828 13.76953125 -0.11328125 C27.65924217 -0.22073832 39.58036544 2.89019784 52.4375 8.2109375 C53.71451782 8.73300781 53.71451782 8.73300781 55.01733398 9.265625 C84.9161786 21.68993244 106.01348176 44.04761288 119.1875 73.3359375 C120.06753584 76.2498693 120.3223661 78.87549217 120.34863281 81.9140625 C120.35824036 82.81600342 120.3678479 83.71794434 120.37774658 84.6472168 C120.3841214 86.10188354 120.3841214 86.10188354 120.390625 87.5859375 C120.39632507 88.59503174 120.40202515 89.60412598 120.40789795 90.64379883 C120.41734209 92.78221593 120.4238796 94.92064755 120.42773438 97.05908203 C120.43738147 100.29616565 120.46838643 103.53259816 120.5 106.76953125 C120.5693568 119.93210084 120.32882742 131.71379663 113.625 143.3984375 C113.02558594 144.46191406 112.42617188 145.52539062 111.80859375 146.62109375 C110.6524226 148.55733218 109.43843823 150.45953015 108.1875 152.3359375 C107.5275 152.3359375 106.8675 152.3359375 106.1875 152.3359375 C105.92179199 152.92383057 105.65608398 153.51172363 105.38232422 154.11743164 C104.15614192 156.39416203 102.85295392 157.96826583 101.0703125 159.83203125 C100.46316406 160.47333984 99.85601562 161.11464844 99.23046875 161.77539062 C98.28107422 162.76442383 98.28107422 162.76442383 97.3125 163.7734375 C92.52494055 168.7518952 92.52494055 168.7518952 88.0859375 174.03515625 C75.62623315 189.13549752 54.12943632 197.30472732 35.1875 199.3359375 C5.15457111 201.62387913 -22.75926184 191.4891002 -45.7109375 172.18359375 C-46.40445313 171.57386719 -47.09796875 170.96414063 -47.8125 170.3359375 C-48.75996094 169.52962891 -48.75996094 169.52962891 -49.7265625 168.70703125 C-58.46579333 160.7185273 -62.8180235 149.42756798 -67.5625 138.8359375 C-68.27067871 137.26996826 -68.27067871 137.26996826 -68.99316406 135.67236328 C-72.05401277 128.68754592 -74.22483903 121.79222519 -75.8125 114.3359375 C-76.0919043 113.04574707 -76.0919043 113.04574707 -76.37695312 111.72949219 C-80.58862011 88.58421017 -72.7606992 57.50565336 -59.8125 38.3359375 C-57.0317536 34.48721474 -54.14584346 30.72359205 -50.8125 27.3359375 C-50.1525 27.3359375 -49.4925 27.3359375 -48.8125 27.3359375 C-48.4825 26.3459375 -48.1525 25.3559375 -47.8125 24.3359375 C-35.8561288 11.70821925 -17.73513558 0.05784334 0 0 Z " fill="#F8556D" transform="translate(227.8125,150.6640625)"/>
<path d="M0 0 C5.28920482 3.17004886 8.75348126 6.9090308 10.31640625 12.92578125 C14.13023006 35.23496301 -4.78645905 60.57715233 -16.8503418 77.72583008 C-26.82063058 91.55308999 -38.7704737 106.84259827 -52.9921875 116.4921875 C-56.18231515 117.00612679 -56.69591976 116.59964202 -59.3203125 114.8828125 C-60.68777253 113.8571754 -62.03726884 112.80729458 -63.37109375 111.73828125 C-64.08225342 111.18382324 -64.79341309 110.62936523 -65.52612305 110.05810547 C-71.58644146 105.22499293 -76.79916697 99.95044674 -81.68359375 93.92578125 C-82.34584961 93.10956299 -82.34584961 93.10956299 -83.02148438 92.27685547 C-85.85796027 88.76299739 -88.63349997 85.20630917 -91.37841797 81.62060547 C-92.59151233 80.04535274 -93.82617129 78.48677144 -95.0625 76.9296875 C-108.13090545 60.17940086 -117.10929275 42.48324039 -115.4453125 20.82421875 C-114.58173507 13.93304533 -112.85596238 8.75167543 -107.68359375 3.92578125 C-103.19922452 1.20121429 -98.72522174 1.37384876 -93.703125 2.28515625 C-84.2724683 5.07105883 -78.26472359 13.64798214 -73.64599609 21.84350586 C-67.74173823 33.06751486 -63.54321448 45.59186153 -60.68359375 57.92578125 C-60.33167969 56.71664062 -59.97976562 55.5075 -59.6171875 54.26171875 C-53.13766946 32.5400756 -43.68385283 14.6323274 -23.9296875 2.19140625 C-16.43250374 -1.69359727 -8.03578855 -3.2166548 0 0 Z " fill="#FEDD59" transform="translate(300.68359375,202.07421875)"/>
<path d="M0 0 C5.26247219 1.51220465 8.52490083 4.92953871 12.375 8.625 C13.04474854 9.26236084 13.71449707 9.89972168 14.40454102 10.55639648 C26.0619594 21.73800188 42.04278789 40.11058855 43.14044189 57.18457031 C43.1472699 57.97444336 43.1540979 58.76431641 43.16113281 59.578125 C43.17074036 60.48006592 43.1803479 61.38200684 43.19024658 62.3112793 C43.19449646 63.28105713 43.19874634 64.25083496 43.203125 65.25 C43.20882507 66.25909424 43.21452515 67.26818848 43.22039795 68.30786133 C43.22984209 70.44627843 43.2363796 72.58471005 43.24023438 74.72314453 C43.24988147 77.96022815 43.28088643 81.19666066 43.3125 84.43359375 C43.3818568 97.59616334 43.14132742 109.37785913 36.4375 121.0625 C35.53837891 122.65771484 35.53837891 122.65771484 34.62109375 124.28515625 C33.4649226 126.22139468 32.25093823 128.12359265 31 130 C30.34 130 29.68 130 29 130 C28.73429199 130.58789307 28.46858398 131.17578613 28.19482422 131.78149414 C26.96864192 134.05822453 25.66545392 135.63232833 23.8828125 137.49609375 C23.27566406 138.13740234 22.66851562 138.77871094 22.04296875 139.43945312 C21.09357422 140.42848633 21.09357422 140.42848633 20.125 141.4375 C15.33744055 146.4159577 15.33744055 146.4159577 10.8984375 151.69921875 C-1.51095771 166.73858867 -23.08947086 175.07348984 -42 177 C-45.626656 177.21784367 -49.24219421 177.29573816 -52.875 177.3125 C-54.15769775 177.32071777 -54.15769775 177.32071777 -55.46630859 177.32910156 C-61.49715018 177.26148339 -67.13148115 176.36660923 -73 175 C-73 174.67 -73 174.34 -73 174 C-72.41476563 174.0721875 -71.82953125 174.144375 -71.2265625 174.21875 C-55.48468716 175.92057436 -41.27143985 175.21654576 -26 171 C-24.31197266 170.54947266 -24.31197266 170.54947266 -22.58984375 170.08984375 C-5.10265379 164.87753294 8.514322 151.80316659 19.6640625 137.89453125 C21.21446178 135.97338432 22.79268209 134.07434355 24.3984375 132.19921875 C37.65071176 116.63550131 41.17818272 99.0720826 41.29516602 78.94140625 C41.30663278 77.57443853 41.32700012 76.20751369 41.35668945 74.84082031 C41.90327446 49.56966113 28.90750103 29.79271051 12 12 C9.36513875 9.29985016 6.69343652 6.64152875 4 4 C2.66549861 2.66783574 1.33186248 1.33480257 0 0 Z " fill="#FEF5F6" transform="translate(305,173)"/>
<path d="M0 0 C0.66 0.33 1.32 0.66 2 1 C-3.94 6.94 -9.88 12.88 -16 19 C-16.66 18.67 -17.32 18.34 -18 18 C-16.38405168 15.95880212 -14.7143618 13.95927063 -13 12 C-12.34 12 -11.68 12 -11 12 C-10.67 11.01 -10.34 10.02 -10 9 C-8.22265625 7.24609375 -8.22265625 7.24609375 -6.0625 5.4375 C-3.96656037 3.66869432 -1.94005112 1.94005112 0 0 Z " fill="#FB95A5" transform="translate(190,166)"/>
</svg>
